<svg width="190" height="38" viewBox="0 0 190 38" fill="none" xmlns="http://www.w3.org/2000/svg">
<path d="M52.1061 29.8752C46.6517 29.8752 41.6157 25.9187 41.6157 19.0749C41.6157 11.415 47.1165 7.91818 52.0028 7.91818C58.4282 7.91818 60.7422 12.1846 61.3 14.7052L68.96 12.2879C67.7771 7.04528 62.9425 0 51.9924 0C41.8068 0 33.1707 7.71159 33.1707 19.0749C33.1707 30.4382 41.6053 38 52.0957 38C63.4074 38 68.242 30.2884 69.4248 25.2472L61.6771 23.0366C60.9488 25.6605 58.4282 29.8752 52.1061 29.8752Z" fill="white"/>
<path d="M92.0067 29.8752C86.5575 29.8752 81.5163 25.9187 81.5163 19.0749C81.5163 11.415 87.0172 7.91818 91.9034 7.91818C98.334 7.91818 100.648 12.1846 101.201 14.7052L108.861 12.2879C107.678 7.04528 102.848 0 91.8931 0C81.7126 0 73.0713 7.71159 73.0713 19.0749C73.0713 30.4382 81.506 38 91.9964 38C103.308 38 108.143 30.2884 109.325 25.2472L101.578 23.0366C100.849 25.6605 98.334 29.8752 92.0067 29.8752Z" fill="white"/>
<path d="M138.901 8.48626V0.769531H115.4V16.5594H123.158V23.2431H115.4V36.8636H123.524V23.6047H137.047V16.1978H123.524V8.48626H138.901Z" fill="white"/>
<path d="M19.0491 8.17119H11.6319V0.769531H0V8.53791H11.2704V36.8636H19.3951V8.53791H30.681V0.769531H19.0491V8.17119Z" fill="white"/>
<path d="M150.611 1.6686V6.09514H149.541V1.6686H147.832V0.692383H152.32V1.69442L150.611 1.6686Z" fill="white"/>
<path d="M156.489 4.85549H154.278L153.828 6.09514H152.728L154.794 0.692383H156.018L158.085 6.12096H156.933L156.489 4.85549ZM154.634 3.88961H156.137L155.383 1.82355L154.634 3.88961Z" fill="white"/>
<path d="M159.169 6.09514V0.692383H160.238V6.12096L159.169 6.09514Z" fill="white"/>
<path d="M168.317 0.692383H169.396L167.898 6.12096H166.809L165.569 2.25744L164.329 6.12096H163.229L161.721 0.692383H162.837L163.834 4.43195L165.032 0.692383H166.127L167.335 4.44746L168.317 0.692383Z" fill="white"/>
<path d="M173.533 4.85549H171.323L170.873 6.09514H169.773L171.839 0.692383H173.063L175.129 6.12096H173.978L173.533 4.85549ZM171.679 3.88961H173.182L172.428 1.82355L171.679 3.88961Z" fill="white"/>
<path d="M179.985 6.09514L177.521 2.24193V6.08997H176.488V0.692383H177.805L180.062 4.28217V0.692383H181.095V6.12096L179.985 6.09514Z" fill="white"/>
<path d="M148.007 13.6359C147.995 13.2665 148.057 12.8983 148.191 12.5537C148.324 12.209 148.526 11.8949 148.784 11.6304C149.043 11.3659 149.352 11.1565 149.693 11.0147C150.034 10.8729 150.401 10.8017 150.771 10.8054C151.33 10.7654 151.886 10.9236 152.34 11.2523C152.794 11.5809 153.118 12.0591 153.255 12.6029L152.263 12.9179C152.187 12.5871 151.994 12.2947 151.72 12.0939C151.446 11.893 151.109 11.7968 150.771 11.8229C150.291 11.8229 149.831 12.0134 149.492 12.3524C149.153 12.6915 148.963 13.1513 148.963 13.6307C148.963 14.1102 149.153 14.57 149.492 14.9091C149.831 15.2481 150.291 15.4385 150.771 15.4385C151.117 15.4592 151.46 15.3601 151.742 15.1579C152.024 14.9557 152.228 14.6628 152.32 14.328L153.307 14.6276C153.165 15.177 152.837 15.6606 152.38 15.9966C151.923 16.3326 151.363 16.5003 150.796 16.4716C150.423 16.4834 150.051 16.4178 149.704 16.2789C149.357 16.1399 149.043 15.9307 148.781 15.6643C148.519 15.3979 148.315 15.0802 148.182 14.7311C148.049 14.382 147.989 14.0091 148.007 13.6359Z" fill="white"/>
<path d="M156.432 14.2555H155.879V16.3216H154.794V10.9188H156.917C157.143 10.9015 157.37 10.9316 157.584 11.0072C157.798 11.0829 157.993 11.2023 158.158 11.3579C158.323 11.5136 158.454 11.7019 158.541 11.9109C158.629 12.1199 158.672 12.345 158.668 12.5717C158.679 12.9229 158.571 13.2675 158.361 13.5491C158.151 13.8306 157.851 14.0324 157.511 14.1212L158.673 16.3422H157.496L156.432 14.2555ZM156.736 13.3464C156.843 13.3589 156.951 13.3487 157.053 13.3165C157.155 13.2843 157.249 13.2309 157.329 13.1596C157.409 13.0884 157.474 13.001 157.517 12.9032C157.561 12.8054 157.584 12.6995 157.584 12.5923C157.584 12.4851 157.561 12.3792 157.517 12.2814C157.474 12.1836 157.409 12.0963 157.329 12.025C157.249 11.9538 157.155 11.9003 157.053 11.8681C156.951 11.8359 156.843 11.8257 156.736 11.8382H155.879V13.3464H156.736Z" fill="white"/>
<path d="M160.28 16.3475V10.9189H163.678V11.9158H161.339V13.1555H163.456V14.1213H161.339V15.3765H163.678V16.3733L160.28 16.3475Z" fill="white"/>
<path d="M168.683 15.1079H166.478L166.023 16.3475H164.908L166.974 10.9189H168.224L170.29 16.3475H169.143L168.683 15.1079ZM166.829 14.1213H168.332L167.578 12.0553L166.829 14.1213Z" fill="white"/>
<path d="M173.342 11.921V16.3475H172.278V11.921H170.563V10.9189H175.057V11.921H173.342Z" fill="white"/>
<path d="M176.41 16.3475V10.9189H177.485V16.3475H176.41Z" fill="white"/>
<path d="M182.789 10.9189H183.91L181.896 16.3475H180.811L178.802 10.9189H179.959L181.374 14.9529L182.789 10.9189Z" fill="white"/>
<path d="M185.238 16.3475V10.9189H188.636V11.9158H186.302V13.1555H188.42V14.1213H186.302V15.3765H188.642V16.3733L185.238 16.3475Z" fill="white"/>
<path d="M148.007 23.8888C147.995 23.5194 148.057 23.1513 148.191 22.8066C148.324 22.4619 148.526 22.1479 148.784 21.8834C149.043 21.6189 149.352 21.4094 149.693 21.2676C150.034 21.1258 150.401 21.0546 150.771 21.0583C151.33 21.0183 151.886 21.1765 152.34 21.5052C152.794 21.8339 153.118 22.312 153.255 22.8558L152.263 23.1709C152.187 22.8401 151.994 22.5477 151.72 22.3468C151.446 22.1459 151.109 22.0498 150.771 22.0759C150.291 22.0759 149.831 22.2663 149.492 22.6054C149.153 22.9444 148.963 23.4042 148.963 23.8837C148.963 24.3632 149.153 24.823 149.492 25.162C149.831 25.501 150.291 25.6915 150.771 25.6915C151.117 25.7121 151.46 25.6131 151.742 25.4109C152.024 25.2087 152.228 24.9157 152.32 24.581L153.307 24.8806C153.164 25.4295 152.836 25.9125 152.379 26.2483C151.922 26.5842 151.363 26.7523 150.796 26.7245C150.423 26.7364 150.051 26.6707 149.704 26.5318C149.357 26.3929 149.043 26.1836 148.781 25.9172C148.519 25.6509 148.315 25.3331 148.182 24.984C148.049 24.6349 147.989 24.262 148.007 23.8888Z" fill="white"/>
<path d="M157.284 21.0585C157.846 21.0493 158.397 21.2074 158.869 21.5128C159.34 21.8181 159.71 22.2569 159.932 22.7732C160.153 23.2896 160.216 23.8601 160.112 24.4122C160.008 24.9643 159.742 25.473 159.348 25.8735C158.954 26.274 158.45 26.5482 157.9 26.6613C157.35 26.7743 156.778 26.721 156.258 26.5082C155.738 26.2954 155.293 25.9327 154.98 25.4663C154.667 24.9999 154.5 24.4508 154.5 23.889C154.487 23.5178 154.55 23.148 154.685 22.8019C154.82 22.4558 155.024 22.1408 155.284 21.876C155.545 21.6112 155.856 21.4022 156.2 21.2616C156.544 21.1211 156.913 21.052 157.284 21.0585ZM157.284 25.7072C157.646 25.731 158.006 25.6454 158.319 25.4616C158.632 25.2778 158.882 25.0041 159.037 24.6763C159.192 24.3485 159.245 23.9815 159.189 23.6233C159.133 23.265 158.97 22.9319 158.722 22.6672C158.474 22.4026 158.152 22.2186 157.798 22.1393C157.444 22.0599 157.075 22.0889 156.738 22.2223C156.4 22.3557 156.111 22.5875 155.907 22.8875C155.703 23.1875 155.595 23.5419 155.595 23.9045C155.58 24.1346 155.613 24.3652 155.691 24.582C155.769 24.7988 155.892 24.997 156.05 25.1644C156.209 25.3317 156.4 25.4644 156.613 25.5542C156.825 25.6441 157.053 25.6891 157.284 25.6865V25.7072Z" fill="white"/>
<path d="M165.187 26.6004L162.723 22.7472V26.6004H161.69V21.1719H163.007L165.264 24.7875V21.1719H166.297V26.6004H165.187Z" fill="white"/>
<path d="M170.434 22.1739V26.6004H169.37V22.1739H167.656V21.1719H172.149V22.1739H170.434Z" fill="white"/>
<path d="M173.502 26.6004V21.1719H176.901V22.1687H174.556V23.4187H176.679V24.3588H174.556V25.6139H176.901V26.6108L173.502 26.6004Z" fill="white"/>
<path d="M182.17 26.6004L179.706 22.7472V26.6004H178.647V21.1719H179.964L182.221 24.7875V21.1719H183.254V26.6004H182.17Z" fill="white"/>
<path d="M187.412 22.1739V26.6004H186.348V22.1739H184.633V21.1719H189.127V22.1739H187.412Z" fill="white"/>
<path d="M148.328 36.8482V31.4248H151.757V32.4268H149.381V33.7491H151.494V34.7202H149.392V36.8482H148.328Z" fill="white"/>
<path d="M153.245 36.8482V31.4248H156.644V32.4217H154.304V33.6613H156.421V34.6014H154.304V35.8565H156.644V36.8482H153.245Z" fill="white"/>
<path d="M161.049 33.0105C161.011 32.7823 160.888 32.5769 160.706 32.4353C160.523 32.2936 160.293 32.226 160.063 32.2461C159.962 32.2346 159.86 32.2434 159.762 32.2719C159.665 32.3003 159.574 32.3479 159.495 32.4119C159.416 32.4758 159.351 32.5549 159.303 32.6443C159.255 32.7338 159.225 32.8319 159.216 32.933C159.218 33.0904 159.28 33.2409 159.39 33.3541C159.499 33.4673 159.647 33.5346 159.804 33.5425L160.564 33.6923C160.97 33.7265 161.348 33.9094 161.628 34.2059C161.907 34.5023 162.067 34.8915 162.077 35.2987C162.077 36.1354 161.38 36.9773 160.119 36.9773C158.678 36.9773 158.053 36.0528 157.96 35.278L158.937 35.0198C158.944 35.1664 158.982 35.31 159.046 35.442C159.11 35.574 159.201 35.6918 159.312 35.7882C159.422 35.8845 159.552 35.9576 159.691 36.0031C159.831 36.0486 159.978 36.0655 160.125 36.0528C160.693 36.0528 161.008 35.7687 161.008 35.3865C161.008 35.0042 160.77 34.8235 160.347 34.7408L159.587 34.591C159.202 34.5507 158.845 34.3709 158.584 34.0854C158.322 33.8 158.174 33.4287 158.167 33.0415C158.179 32.8056 158.237 32.5743 158.339 32.361C158.44 32.1477 158.583 31.9566 158.759 31.7987C158.935 31.6408 159.14 31.5192 159.363 31.4408C159.585 31.3625 159.822 31.3289 160.057 31.3422C161.375 31.3422 161.881 32.1376 162 32.7471L161.049 33.0105Z" fill="white"/>
<path d="M165.967 32.4268V36.8482H164.903V32.4217H163.188V31.4248H167.707V32.4268H165.967Z" fill="white"/>
</svg>
